# xmcd CD database file
#
# Track frame offsets:
#	150
#	10852
#	25580
#	34737
#	46390
#	60092
#	72360
#	84140
#	94552
#	103807
#	116357
#
# Disc length: 1679 seconds
#
# Revision: 0
# Processed by: cddbd v1.5.1PL0 Copyright (c) Steve Scherf et al.
# Submitted via: CDex 1.51
#
DISCID=75068d0b
DTITLE=George Jones - Honky Tonkin'
DYEAR=1900
DGENRE=Country
TTITLE0=Who Shot Sam
TTITLE1=Cold Cold Heart
TTITLE2=Honky Tonkin'
TTITLE3=Revenooer Man
TTITLE4=Family Man
TTITLE5=Oh Lonesome Me
TTITLE6=You're Still On My Mind
TTITLE7=Hey Good Lookin'
TTITLE8=Big Harlan Taylor
TTITLE9=White Lightning
TTITLE10=Nobody's Lonesome For ME
EXTD=
EXTT0=
EXTT1=
EXTT2=
EXTT3=
EXTT4=
EXTT5=
EXTT6=
EXTT7=
EXTT8=
EXTT9=
EXTT10=
PLAYORDER=
